<svg xmlns="http://www.w3.org/2000/svg" version="1.1" xmlns:xlink="http://www.w3.org/1999/xlink" xmlns:svgjs="http://svgjs.com/svgjs" width="1920" height="1080" preserveAspectRatio="none" viewBox="0 0 1920 1080"><g mask="url(&quot;#SvgjsMask1062&quot;)" fill="none"><rect width="1920" height="1080" x="0" y="0" fill="rgba(35, 39, 42, 1)"></rect><path d="M 0,34 C 96,87 288,272.4 480,299 C 672,325.6 768,144.4 960,167 C 1152,189.6 1248,407.6 1440,412 C 1632,416.4 1824,233.6 1920,189L1920 1080L0 1080z" fill="rgba(25, 28, 29, 1)"></path><path d="M 0,978 C 128,931.8 384,734 640,747 C 896,760 1024,1065.8 1280,1043 C 1536,1020.2 1792,715 1920,633L1920 1080L0 1080z" fill="rgba(35, 39, 42, 1)"></path></g><defs><mask id="SvgjsMask1062"><rect width="1920" height="1080" fill="#ffffff"></rect></mask></defs></svg>