<svg xmlns="http://www.w3.org/2000/svg" data-name="Layer 1" viewBox="0 0 128 128"><path d="M10,80h.14A2,2,0,0,0,12,77.86C11.56,71.17,17.82,65.08,26.26,64a2,2,0,1,0-.51-4C15.21,61.38,7.43,69.34,8,78.14A2,2,0,0,0,10,80Z"/><circle cx="34" cy="61" r="2"/><path d="M21.63,99a25,25,0,0,0,16.59-6.82C39.84,112.38,50.76,128,64,128s24.16-15.62,25.78-35.82A25,25,0,0,0,106.37,99c6.13,0,12.19-2.67,16.81-8.64,12-15.52,0-34.88-19.43-37.54L79.2,48.39A19,19,0,0,0,70,19,11.8,11.8,0,0,1,75.46,8.53,5,5,0,1,0,74,4.72a15.84,15.84,0,0,0-8,13.39,18.5,18.5,0,0,0-4.07,0A15.84,15.84,0,0,0,54,4.72a5,5,0,1,0-1.44,3.81A11.83,11.83,0,0,1,58,19a19,19,0,0,0-9.19,29.4L24.25,52.83C4.78,55.48-7.21,74.84,4.82,90.36,9.44,96.33,15.5,99,21.63,99ZM79,4a1,1,0,1,1-1,1A1,1,0,0,1,79,4ZM49,6a1,1,0,1,1,1-1A1,1,0,0,1,49,6ZM84,108.47C64.94,95.22,49.71,104,44,108.44c-.51-1.26-1-2.58-1.4-3.94,7-5.08,23.08-13.1,42.85.07C85,105.92,84.54,107.22,84,108.47ZM87.7,93.1l-.94,1.19c-25.52-20.17-44.51-.7-45.31.14l-1.12-1h0q-.16-1.5-.24-3l.27-.28c5.68-4.74,24.13-17,47-.28l.5.56C87.86,91.27,87.79,92.19,87.7,93.1ZM75.08,52.42c.26-.18.52-.38.77-.58L103,56.76l.17,0c8.9,1.21,16.57,6.67,19.52,13.89,2.37,5.8,1.41,11.92-2.71,17.23C116.42,92.55,111.7,95,106.37,95c-8.58,0-16.9-6.26-20.71-15.58-2.83-6.92-6.26-14-9-19.68-1.14-2.35-2.19-4.51-3-6.36C74.1,53.08,74.6,52.77,75.08,52.42Zm.73,14.82c.84,1.77,1.7,3.61,2.56,5.47-12-5.93-22-3.56-28.61-.29.85-1.85,1.71-3.68,2.55-5.44A34,34,0,0,1,75.81,67.24ZM5.28,70.68c3-7.23,10.61-12.68,19.52-13.89l.17,0,27.19-4.92c.25.2.51.39.77.58.48.35,1,.66,1.48,1-.86,1.85-1.91,4-3,6.36-2.76,5.69-6.19,12.76-9,19.68C38.53,88.74,30.21,95,21.63,95,16.3,95,11.58,92.55,8,87.91,3.87,82.6,2.9,76.48,5.28,70.68Z"/><path d="M101.75,64c8.44,1.09,14.69,7.19,14.23,13.88A2,2,0,0,0,117.84,80H118a2,2,0,0,0,2-1.86c.6-8.79-7.18-16.75-17.71-18.12a2,2,0,1,0-.51,4Z"/><circle cx="94" cy="61" r="2"/></svg>